<mxfile host="app.diagrams.net" modified="2023-11-16T05:38:47.409Z" agent="Mozilla/5.0 (Windows NT 10.0; Win64; x64) AppleWebKit/537.36 (KHTML, like Gecko) Chrome/119.0.0.0 Safari/537.36" etag="z52yZ91idZSVNrBU3ZMD" version="22.1.2" type="github">
  <diagram name="第 1 页" id="qr5MzAy2Q0cLht8CVudv">
    <mxGraphModel dx="1050" dy="534" grid="0" gridSize="10" guides="1" tooltips="1" connect="1" arrows="1" fold="1" page="1" pageScale="1" pageWidth="827" pageHeight="1169" math="0" shadow="0">
      <root>
        <mxCell id="0" />
        <mxCell id="1" parent="0" />
        <mxCell id="4jqfufRhheAS1Z1An3Y4-1" value="" style="rounded=0;whiteSpace=wrap;html=1;labelBackgroundColor=default;" vertex="1" parent="1">
          <mxGeometry x="383" y="304" width="277" height="421" as="geometry" />
        </mxCell>
        <mxCell id="4jqfufRhheAS1Z1An3Y4-9" style="edgeStyle=orthogonalEdgeStyle;rounded=0;orthogonalLoop=1;jettySize=auto;html=1;exitX=0.5;exitY=0;exitDx=0;exitDy=0;entryX=0.5;entryY=1;entryDx=0;entryDy=0;" edge="1" parent="1" source="4jqfufRhheAS1Z1An3Y4-2" target="4jqfufRhheAS1Z1An3Y4-8">
          <mxGeometry relative="1" as="geometry" />
        </mxCell>
        <mxCell id="4jqfufRhheAS1Z1An3Y4-2" value="&lt;font style=&quot;font-size: 14px;&quot;&gt;&lt;b&gt;自注意力层&lt;/b&gt;&lt;/font&gt;" style="rounded=0;whiteSpace=wrap;html=1;fontFamily=微软雅黑;fontSize=14;fillColor=#fff2cc;strokeColor=#d6b656;" vertex="1" parent="1">
          <mxGeometry x="505" y="585" width="100" height="40" as="geometry" />
        </mxCell>
        <mxCell id="4jqfufRhheAS1Z1An3Y4-3" value="&lt;font style=&quot;font-size: 16px;&quot;&gt;&lt;b&gt;文本嵌入&lt;/b&gt;&lt;/font&gt;" style="text;html=1;align=center;verticalAlign=middle;resizable=0;points=[];autosize=1;strokeColor=none;fillColor=none;fontFamily=微软雅黑;" vertex="1" parent="1">
          <mxGeometry x="509" y="686" width="82" height="31" as="geometry" />
        </mxCell>
        <mxCell id="4jqfufRhheAS1Z1An3Y4-23" style="edgeStyle=orthogonalEdgeStyle;rounded=1;orthogonalLoop=1;jettySize=auto;html=1;exitX=0.5;exitY=0;exitDx=0;exitDy=0;entryX=0.75;entryY=1;entryDx=0;entryDy=0;" edge="1" parent="1" source="4jqfufRhheAS1Z1An3Y4-8" target="4jqfufRhheAS1Z1An3Y4-10">
          <mxGeometry relative="1" as="geometry">
            <Array as="points">
              <mxPoint x="555" y="510" />
              <mxPoint x="580" y="510" />
            </Array>
          </mxGeometry>
        </mxCell>
        <mxCell id="4jqfufRhheAS1Z1An3Y4-54" style="edgeStyle=orthogonalEdgeStyle;rounded=1;orthogonalLoop=1;jettySize=auto;html=1;entryX=1;entryY=0.5;entryDx=0;entryDy=0;dashed=1;" edge="1" parent="1" source="4jqfufRhheAS1Z1An3Y4-8" target="4jqfufRhheAS1Z1An3Y4-48">
          <mxGeometry relative="1" as="geometry">
            <Array as="points">
              <mxPoint x="555" y="520" />
              <mxPoint x="625" y="520" />
              <mxPoint x="625" y="400" />
            </Array>
          </mxGeometry>
        </mxCell>
        <mxCell id="4jqfufRhheAS1Z1An3Y4-8" value="&lt;font style=&quot;font-size: 14px;&quot;&gt;&lt;b&gt;残差&amp;amp;归一&lt;/b&gt;&lt;/font&gt;" style="rounded=0;whiteSpace=wrap;html=1;fontFamily=微软雅黑;fillColor=#ffe6cc;strokeColor=#d79b00;" vertex="1" parent="1">
          <mxGeometry x="505" y="530" width="100" height="40" as="geometry" />
        </mxCell>
        <mxCell id="4jqfufRhheAS1Z1An3Y4-10" value="&lt;span style=&quot;font-size: 14px;&quot;&gt;&lt;b&gt;跨注意力层&lt;/b&gt;&lt;/span&gt;" style="rounded=0;whiteSpace=wrap;html=1;fillColor=#f8cecc;strokeColor=#b85450;" vertex="1" parent="1">
          <mxGeometry x="505" y="440" width="100" height="40" as="geometry" />
        </mxCell>
        <mxCell id="4jqfufRhheAS1Z1An3Y4-12" value="" style="rounded=0;whiteSpace=wrap;html=1;fillColor=#dae8fc;strokeColor=#6c8ebf;" vertex="1" parent="1">
          <mxGeometry x="432" y="380" width="10" height="10" as="geometry" />
        </mxCell>
        <mxCell id="4jqfufRhheAS1Z1An3Y4-13" value="" style="rounded=0;whiteSpace=wrap;html=1;fillColor=#fff2cc;strokeColor=#d6b656;" vertex="1" parent="1">
          <mxGeometry x="485" y="666" width="10" height="10" as="geometry" />
        </mxCell>
        <mxCell id="4jqfufRhheAS1Z1An3Y4-14" value="" style="rounded=0;whiteSpace=wrap;html=1;fillColor=#fff2cc;strokeColor=#d6b656;" vertex="1" parent="1">
          <mxGeometry x="505" y="666" width="10" height="10" as="geometry" />
        </mxCell>
        <mxCell id="4jqfufRhheAS1Z1An3Y4-15" value="" style="rounded=0;whiteSpace=wrap;html=1;fillColor=#fff2cc;strokeColor=#d6b656;" vertex="1" parent="1">
          <mxGeometry x="525" y="666" width="10" height="10" as="geometry" />
        </mxCell>
        <mxCell id="4jqfufRhheAS1Z1An3Y4-32" value="" style="edgeStyle=orthogonalEdgeStyle;rounded=1;orthogonalLoop=1;jettySize=auto;html=1;" edge="1" parent="1" source="4jqfufRhheAS1Z1An3Y4-16" target="4jqfufRhheAS1Z1An3Y4-2">
          <mxGeometry relative="1" as="geometry">
            <Array as="points">
              <mxPoint x="550" y="640" />
              <mxPoint x="550" y="640" />
            </Array>
          </mxGeometry>
        </mxCell>
        <mxCell id="4jqfufRhheAS1Z1An3Y4-33" style="edgeStyle=orthogonalEdgeStyle;rounded=1;orthogonalLoop=1;jettySize=auto;html=1;exitX=0.25;exitY=0;exitDx=0;exitDy=0;entryX=0.75;entryY=1;entryDx=0;entryDy=0;" edge="1" parent="1">
          <mxGeometry relative="1" as="geometry">
            <mxPoint x="549.5" y="666" as="sourcePoint" />
            <mxPoint x="574.5" y="626" as="targetPoint" />
            <Array as="points">
              <mxPoint x="550" y="646" />
              <mxPoint x="575" y="646" />
            </Array>
          </mxGeometry>
        </mxCell>
        <mxCell id="4jqfufRhheAS1Z1An3Y4-34" style="edgeStyle=orthogonalEdgeStyle;rounded=1;orthogonalLoop=1;jettySize=auto;html=1;exitX=0.5;exitY=0;exitDx=0;exitDy=0;entryX=0.25;entryY=1;entryDx=0;entryDy=0;" edge="1" parent="1" source="4jqfufRhheAS1Z1An3Y4-16" target="4jqfufRhheAS1Z1An3Y4-2">
          <mxGeometry relative="1" as="geometry" />
        </mxCell>
        <mxCell id="4jqfufRhheAS1Z1An3Y4-44" style="edgeStyle=orthogonalEdgeStyle;orthogonalLoop=1;jettySize=auto;html=1;entryX=1;entryY=0.5;entryDx=0;entryDy=0;rounded=1;dashed=1;" edge="1" parent="1" source="4jqfufRhheAS1Z1An3Y4-16" target="4jqfufRhheAS1Z1An3Y4-8">
          <mxGeometry relative="1" as="geometry">
            <Array as="points">
              <mxPoint x="550" y="646" />
              <mxPoint x="620" y="646" />
              <mxPoint x="620" y="550" />
            </Array>
          </mxGeometry>
        </mxCell>
        <mxCell id="4jqfufRhheAS1Z1An3Y4-16" value="" style="rounded=0;whiteSpace=wrap;html=1;fillColor=#fff2cc;strokeColor=#d6b656;" vertex="1" parent="1">
          <mxGeometry x="545" y="666" width="10" height="10" as="geometry" />
        </mxCell>
        <mxCell id="4jqfufRhheAS1Z1An3Y4-17" value="" style="rounded=0;whiteSpace=wrap;html=1;fillColor=#fff2cc;strokeColor=#d6b656;" vertex="1" parent="1">
          <mxGeometry x="565" y="666" width="10" height="10" as="geometry" />
        </mxCell>
        <mxCell id="4jqfufRhheAS1Z1An3Y4-18" value="" style="rounded=0;whiteSpace=wrap;html=1;fillColor=#fff2cc;strokeColor=#d6b656;" vertex="1" parent="1">
          <mxGeometry x="585" y="666" width="10" height="10" as="geometry" />
        </mxCell>
        <mxCell id="4jqfufRhheAS1Z1An3Y4-19" value="" style="rounded=0;whiteSpace=wrap;html=1;fillColor=#fff2cc;strokeColor=#d6b656;" vertex="1" parent="1">
          <mxGeometry x="605" y="666" width="10" height="10" as="geometry" />
        </mxCell>
        <mxCell id="4jqfufRhheAS1Z1An3Y4-36" value="" style="rounded=0;whiteSpace=wrap;html=1;fillColor=#dae8fc;strokeColor=#6c8ebf;" vertex="1" parent="1">
          <mxGeometry x="432" y="400" width="10" height="10" as="geometry" />
        </mxCell>
        <mxCell id="4jqfufRhheAS1Z1An3Y4-37" value="" style="rounded=0;whiteSpace=wrap;html=1;fillColor=#dae8fc;strokeColor=#6c8ebf;" vertex="1" parent="1">
          <mxGeometry x="432" y="420" width="10" height="10" as="geometry" />
        </mxCell>
        <mxCell id="4jqfufRhheAS1Z1An3Y4-43" style="edgeStyle=orthogonalEdgeStyle;rounded=1;orthogonalLoop=1;jettySize=auto;html=1;entryX=0.25;entryY=1;entryDx=0;entryDy=0;" edge="1" parent="1" source="4jqfufRhheAS1Z1An3Y4-38" target="4jqfufRhheAS1Z1An3Y4-10">
          <mxGeometry relative="1" as="geometry">
            <Array as="points">
              <mxPoint x="480" y="445" />
              <mxPoint x="480" y="516" />
              <mxPoint x="530" y="516" />
            </Array>
          </mxGeometry>
        </mxCell>
        <mxCell id="4jqfufRhheAS1Z1An3Y4-45" style="edgeStyle=orthogonalEdgeStyle;rounded=1;orthogonalLoop=1;jettySize=auto;html=1;entryX=0.5;entryY=1;entryDx=0;entryDy=0;" edge="1" parent="1">
          <mxGeometry relative="1" as="geometry">
            <mxPoint x="440" y="445" as="sourcePoint" />
            <mxPoint x="555" y="480" as="targetPoint" />
            <Array as="points">
              <mxPoint x="480" y="445" />
              <mxPoint x="480" y="516" />
              <mxPoint x="555" y="516" />
            </Array>
          </mxGeometry>
        </mxCell>
        <mxCell id="4jqfufRhheAS1Z1An3Y4-38" value="" style="rounded=0;whiteSpace=wrap;html=1;fillColor=#dae8fc;strokeColor=#6c8ebf;" vertex="1" parent="1">
          <mxGeometry x="432" y="440" width="10" height="10" as="geometry" />
        </mxCell>
        <mxCell id="4jqfufRhheAS1Z1An3Y4-39" value="" style="rounded=0;whiteSpace=wrap;html=1;fillColor=#dae8fc;strokeColor=#6c8ebf;" vertex="1" parent="1">
          <mxGeometry x="432" y="460" width="10" height="10" as="geometry" />
        </mxCell>
        <mxCell id="4jqfufRhheAS1Z1An3Y4-40" value="" style="rounded=0;whiteSpace=wrap;html=1;fillColor=#dae8fc;strokeColor=#6c8ebf;" vertex="1" parent="1">
          <mxGeometry x="432" y="480" width="10" height="10" as="geometry" />
        </mxCell>
        <mxCell id="4jqfufRhheAS1Z1An3Y4-41" value="" style="rounded=0;whiteSpace=wrap;html=1;fillColor=#dae8fc;strokeColor=#6c8ebf;" vertex="1" parent="1">
          <mxGeometry x="432" y="500" width="10" height="10" as="geometry" />
        </mxCell>
        <mxCell id="4jqfufRhheAS1Z1An3Y4-53" value="" style="edgeStyle=orthogonalEdgeStyle;rounded=0;orthogonalLoop=1;jettySize=auto;html=1;" edge="1" parent="1" source="4jqfufRhheAS1Z1An3Y4-48" target="4jqfufRhheAS1Z1An3Y4-52">
          <mxGeometry relative="1" as="geometry" />
        </mxCell>
        <mxCell id="4jqfufRhheAS1Z1An3Y4-48" value="&lt;font style=&quot;font-size: 14px;&quot;&gt;&lt;b&gt;残差&amp;amp;归一&lt;/b&gt;&lt;/font&gt;" style="rounded=0;whiteSpace=wrap;html=1;fillColor=#ffe6cc;strokeColor=#d79b00;" vertex="1" parent="1">
          <mxGeometry x="505" y="380" width="100" height="40" as="geometry" />
        </mxCell>
        <mxCell id="4jqfufRhheAS1Z1An3Y4-52" value="&lt;font style=&quot;font-size: 14px;&quot;&gt;&lt;b&gt;前馈网络层&lt;/b&gt;&lt;/font&gt;" style="rounded=0;whiteSpace=wrap;html=1;fillColor=#d5e8d4;strokeColor=#82b366;" vertex="1" parent="1">
          <mxGeometry x="505" y="320" width="100" height="40" as="geometry" />
        </mxCell>
        <mxCell id="4jqfufRhheAS1Z1An3Y4-55" value="&lt;b&gt;图像嵌入&lt;/b&gt;" style="text;html=1;strokeColor=none;fillColor=none;align=center;verticalAlign=middle;whiteSpace=wrap;rounded=0;fontSize=16;" vertex="1" parent="1">
          <mxGeometry x="402" y="410" width="20" height="60" as="geometry" />
        </mxCell>
      </root>
    </mxGraphModel>
  </diagram>
</mxfile>
